<?xml version="1.0" encoding="UTF-8"?>
<svg version="1.1" xmlns="http://www.w3.org/2000/svg" width="121" height="136">
<path d="M0 0 C8.27494857 7.4181419 13.12464274 17.39168525 14.31640625 28.36328125 C14.64911533 38.18356538 12.92824897 46.51066467 6.75 54.3125 C2.13566965 59.11416428 -3.33852498 62.00938062 -10.0625 62.25 C-11.39881847 62.16250296 -12.73304163 62.03606899 -14.0625 61.875 C-14.7946875 61.80410156 -15.526875 61.73320313 -16.28125 61.66015625 C-22.6271842 60.69305326 -26.93960271 57.76277869 -31.0625 52.875 C-34.57133676 47.52239948 -34.56705838 42.51094214 -34.6875 36.3125 C-34.73879414 34.45693434 -34.7933758 32.60145606 -34.8515625 30.74609375 C-34.86912598 29.93068115 -34.88668945 29.11526855 -34.90478516 28.27514648 C-35.07151302 25.7378374 -35.51258608 23.35512833 -36.0625 20.875 C-40.51673007 19.39025664 -45.14769835 19.59227597 -49.81445312 19.53320312 C-55.51023571 19.32004503 -55.51023571 19.32004503 -58.59765625 16.83203125 C-59.08105469 16.18621094 -59.56445312 15.54039063 -60.0625 14.875 C-62.21104325 21.45491371 -62.13129079 27.39385207 -61.83984375 34.2890625 C-62.08375297 38.21728465 -63.1631601 40.47513174 -65.0625 43.875 C-64.83502693 47.51456908 -62.83598214 50.73730083 -61.0625 53.875 C-60.0725 54.535 -59.0825 55.195 -58.0625 55.875 C-58.248125 56.41125 -58.43375 56.9475 -58.625 57.5 C-59.17772077 60.5004842 -58.64477654 62.89891989 -58.0625 65.875 C-58.0625 66.535 -58.0625 67.195 -58.0625 67.875 C-56.90234375 67.42447266 -56.90234375 67.42447266 -55.71875 66.96484375 C-44.62987914 62.91630798 -44.62987914 62.91630798 -38.0625 64.875 C-33.62611687 67.96117957 -32.08648422 71.29072172 -31.1328125 76.44921875 C-31.01269884 80.59314013 -32.41359026 84.12506011 -34.0625 87.875 C-35.0525 87.875 -36.0425 87.875 -37.0625 87.875 C-36.94390625 87.16214844 -36.8253125 86.44929688 -36.703125 85.71484375 C-35.79051289 78.93413575 -35.98942885 75.42918793 -40.0625 69.875 C-45.62575096 69.5343928 -49.01110759 70.67075604 -54.0625 72.875 C-58.24860811 73.2775104 -59.51241683 73.24172211 -63.0625 70.875 C-63.72265625 68.703125 -63.72265625 68.703125 -64.125 66.125 C-64.64437022 63.09606777 -65.21110291 60.42919126 -66.1875 57.5 C-67.0625 54.875 -67.0625 54.875 -67.0625 50.875 C-68.3825 50.215 -69.7025 49.555 -71.0625 48.875 C-70.30735618 43.33727864 -70.30735618 43.33727864 -69.04052734 40.94555664 C-67.94072752 38.6171986 -67.80950712 37.05747257 -67.7890625 34.49609375 C-67.77157959 33.66255371 -67.75409668 32.82901367 -67.73608398 31.97021484 C-67.72005127 31.09316895 -67.70401855 30.21612305 -67.6875 29.3125 C-67.25754041 17.73570853 -65.13664909 9.14251058 -57.484375 0.109375 C-41.80081972 -14.35996955 -16.45237332 -11.41593251 0 0 Z M-37.0625 -4.125 C-36.0725 -3.795 -35.0825 -3.465 -34.0625 -3.125 C-33.7325 -2.465 -33.4025 -1.805 -33.0625 -1.125 C-31.4125 -1.785 -29.7625 -2.445 -28.0625 -3.125 C-28.0625 -3.455 -28.0625 -3.785 -28.0625 -4.125 C-31.0325 -4.125 -34.0025 -4.125 -37.0625 -4.125 Z M-22.0625 -4.125 C-22.3925 -3.465 -22.7225 -2.805 -23.0625 -2.125 C-22.7325 -1.465 -22.4025 -0.805 -22.0625 -0.125 C-20.99 -0.16625 -19.9175 -0.2075 -18.8125 -0.25 C-15.40537835 -0.13642928 -13.80023233 -0.02035315 -11.0625 1.875 C-10.7325 2.535 -10.4025 3.195 -10.0625 3.875 C-8.03786745 4.52713292 -8.03786745 4.52713292 -6.0625 4.875 C-5.7325 6.855 -5.4025 8.835 -5.0625 10.875 C-3.7425 10.875 -2.4225 10.875 -1.0625 10.875 C-0.7325 13.185 -0.4025 15.495 -0.0625 17.875 C1.5875 18.205 3.2375 18.535 4.9375 18.875 C4.7725 19.37 4.6075 19.865 4.4375 20.375 C3.73061182 23.90944089 3.87744845 27.27190701 3.9375 30.875 C5.2575 31.205 6.5775 31.535 7.9375 31.875 C6.9375 34.875 6.9375 34.875 4.875 36.0625 C4.235625 36.330625 3.59625 36.59875 2.9375 36.875 C2.9375 37.535 2.9375 38.195 2.9375 38.875 C3.5975 39.535 4.2575 40.195 4.9375 40.875 C4.421875 41.968125 3.90625 43.06125 3.375 44.1875 C1.53747888 47.74027247 1.53747888 47.74027247 2.9375 50.875 C3.75110995 49.58403219 4.56335046 48.29220125 5.375 47 C5.82746094 46.28070313 6.27992187 45.56140625 6.74609375 44.8203125 C10.6725709 38.40921211 9.77504853 29.19853666 8.9375 21.875 C5.8708815 11.96224056 -2.16025824 4.03857515 -10.96484375 -1.16015625 C-14.52107228 -2.79588893 -18.21103681 -3.52766659 -22.0625 -4.125 Z M-40.0625 -3.125 C-39.7325 -1.805 -39.4025 -0.485 -39.0625 0.875 C-38.4025 0.545 -37.7425 0.215 -37.0625 -0.125 C-37.3925 -1.115 -37.7225 -2.105 -38.0625 -3.125 C-38.7225 -3.125 -39.3825 -3.125 -40.0625 -3.125 Z M-49.0625 -0.125 C-49.0625 0.535 -49.0625 1.195 -49.0625 1.875 C-48.0725 1.875 -47.0825 1.875 -46.0625 1.875 C-46.0625 1.215 -46.0625 0.555 -46.0625 -0.125 C-47.0525 -0.125 -48.0425 -0.125 -49.0625 -0.125 Z M-54.0625 3.875 C-54.0625 4.535 -54.0625 5.195 -54.0625 5.875 C-54.7225 5.875 -55.3825 5.875 -56.0625 5.875 C-56.0625 6.535 -56.0625 7.195 -56.0625 7.875 C-55.0725 7.545 -54.0825 7.215 -53.0625 6.875 C-52.7325 5.885 -52.4025 4.895 -52.0625 3.875 C-52.7225 3.875 -53.3825 3.875 -54.0625 3.875 Z M-19.0625 3.875 C-19.0625 4.535 -19.0625 5.195 -19.0625 5.875 C-19.7225 5.875 -20.3825 5.875 -21.0625 5.875 C-21.0625 7.525 -21.0625 9.175 -21.0625 10.875 C-17.83845022 9.20545181 -17.83845022 9.20545181 -17.375 6.25 C-17.271875 5.46625 -17.16875 4.6825 -17.0625 3.875 C-17.7225 3.875 -18.3825 3.875 -19.0625 3.875 Z M-35.0625 6.875 C-34.7325 7.865 -34.4025 8.855 -34.0625 9.875 C-33.4025 9.545 -32.7425 9.215 -32.0625 8.875 C-32.0625 8.215 -32.0625 7.555 -32.0625 6.875 C-33.0525 6.875 -34.0425 6.875 -35.0625 6.875 Z M-30.0625 6.875 C-28.7425 8.195 -27.4225 9.515 -26.0625 10.875 C-26.7225 9.555 -27.3825 8.235 -28.0625 6.875 C-28.7225 6.875 -29.3825 6.875 -30.0625 6.875 Z M-50.0625 9.875 C-50.0625 10.865 -50.0625 11.855 -50.0625 12.875 C-49.4025 12.875 -48.7425 12.875 -48.0625 12.875 C-48.3925 11.885 -48.7225 10.895 -49.0625 9.875 C-49.3925 9.875 -49.7225 9.875 -50.0625 9.875 Z M-16.0625 9.875 C-16.3925 11.195 -16.7225 12.515 -17.0625 13.875 C-12.58116426 14.59756829 -12.58116426 14.59756829 -8.0625 14.875 C-8.3925 16.195 -8.7225 17.515 -9.0625 18.875 C-7.7425 17.555 -6.4225 16.235 -5.0625 14.875 C-6.84812677 12.74637606 -6.84812677 12.74637606 -9.0625 12.375 C-11.0625 11.875 -11.0625 11.875 -13.0625 9.875 C-14.0525 9.875 -15.0425 9.875 -16.0625 9.875 Z M-26.0625 10.875 C-25.7325 11.865 -25.4025 12.855 -25.0625 13.875 C-25.0625 12.885 -25.0625 11.895 -25.0625 10.875 C-25.3925 10.875 -25.7225 10.875 -26.0625 10.875 Z M-33.0625 13.875 C-32.7325 15.525 -32.4025 17.175 -32.0625 18.875 C-31.0725 18.215 -30.0825 17.555 -29.0625 16.875 C-30.3825 15.885 -31.7025 14.895 -33.0625 13.875 Z M-3.0625 20.875 C-2.7325 21.865 -2.4025 22.855 -2.0625 23.875 C-1.0725 23.545 -0.0825 23.215 0.9375 22.875 C0.2775 22.875 -0.3825 22.875 -1.0625 22.875 C-1.0625 22.215 -1.0625 21.555 -1.0625 20.875 C-1.7225 20.875 -2.3825 20.875 -3.0625 20.875 Z M-30.0625 21.875 C-29.0625 23.875 -29.0625 23.875 -29.0625 23.875 Z M-11.0625 21.875 C-11.0625 23.525 -11.0625 25.175 -11.0625 26.875 C-10.4025 26.545 -9.7425 26.215 -9.0625 25.875 C-9.0625 24.555 -9.0625 23.235 -9.0625 21.875 C-9.7225 21.875 -10.3825 21.875 -11.0625 21.875 Z M-29.0625 33.875 C-29.0625 36.515 -29.0625 39.155 -29.0625 41.875 C-28.7325 41.875 -28.4025 41.875 -28.0625 41.875 C-28.0625 39.235 -28.0625 36.595 -28.0625 33.875 C-28.3925 33.875 -28.7225 33.875 -29.0625 33.875 Z M-14.0625 34.875 C-14.0625 35.535 -14.0625 36.195 -14.0625 36.875 C-13.0725 36.545 -12.0825 36.215 -11.0625 35.875 C-12.0525 35.545 -13.0425 35.215 -14.0625 34.875 Z M-6.0625 41.875 C-6.0625 42.535 -6.0625 43.195 -6.0625 43.875 C-4.7425 43.215 -3.4225 42.555 -2.0625 41.875 C-3.3825 41.875 -4.7025 41.875 -6.0625 41.875 Z M-15.0625 42.875 C-16.41868499 44.00034105 -16.41868499 44.00034105 -16.125 46.9375 C-16.104375 47.906875 -16.08375 48.87625 -16.0625 49.875 C-15.0725 49.875 -14.0825 49.875 -13.0625 49.875 C-13.3925 47.565 -13.7225 45.255 -14.0625 42.875 C-14.3925 42.875 -14.7225 42.875 -15.0625 42.875 Z M-9.0625 45.875 C-8.0625 47.875 -8.0625 47.875 -8.0625 47.875 Z M-25.0625 47.875 C-24.0625 49.875 -24.0625 49.875 -24.0625 49.875 Z M-4.0625 48.875 C-4.0625 50.855 -4.0625 52.835 -4.0625 54.875 C-0.33635847 53.75645414 -0.33635847 53.75645414 1.9375 50.875 C0.6175 50.875 -0.7025 50.875 -2.0625 50.875 C-2.0625 50.215 -2.0625 49.555 -2.0625 48.875 C-2.7225 48.875 -3.3825 48.875 -4.0625 48.875 Z M-21.0625 51.875 C-21.0625 52.865 -21.0625 53.855 -21.0625 54.875 C-20.4025 54.875 -19.7425 54.875 -19.0625 54.875 C-19.0625 53.885 -19.0625 52.895 -19.0625 51.875 C-19.7225 51.875 -20.3825 51.875 -21.0625 51.875 Z M-14.0625 53.875 C-14.0625 54.865 -14.0625 55.855 -14.0625 56.875 C-12.4125 56.875 -10.7625 56.875 -9.0625 56.875 C-11.32574284 54.79640082 -11.32574284 54.79640082 -14.0625 53.875 Z " fill="#C8DCD7" transform="translate(87.0625,26.125)"/>
<path d="M0 0 C0.33 0.66 0.66 1.32 1 2 C3.02463255 2.65213292 3.02463255 2.65213292 5 3 C4.6875 4.9375 4.6875 4.9375 4 7 C3.01 7.33 2.02 7.66 1 8 C0.67 8.66 0.34 9.32 0 10 C0.99 10.33 1.98 10.66 3 11 C2.01 14.3 1.02 17.6 0 21 C2.475 16.545 2.475 16.545 5 12 C6 15 6 15 5.21484375 16.8671875 C2.02776228 21.87685073 -1.27885673 27.02009894 -7.34375 28.6171875 C-10.0930626 29.01341196 -12.72268605 29.16799639 -15.5 29.1875 C-16.87671875 29.20876953 -16.87671875 29.20876953 -18.28125 29.23046875 C-21.19552633 28.98342521 -23.35358797 28.21293885 -26 27 C-26 26.34 -26 25.68 -26 25 C-26.99 24.67 -27.98 24.34 -29 24 C-29.08121924 22.39667209 -29.13929134 20.79215974 -29.1875 19.1875 C-29.22230469 18.29417969 -29.25710937 17.40085937 -29.29296875 16.48046875 C-29 14 -29 14 -27.73046875 12.1953125 C-24.77637833 10.15478955 -21.42280029 10.59379218 -18 11 C-15 12 -15 12 -13 13 C-14.75864246 10.8206856 -15.69396 10.06313581 -18.48046875 9.48828125 C-19.82044922 9.40126953 -19.82044922 9.40126953 -21.1875 9.3125 C-22.08855469 9.24675781 -22.98960938 9.18101563 -23.91796875 9.11328125 C-24.60503906 9.07589844 -25.29210937 9.03851563 -26 9 C-25.01 7.35 -24.02 5.7 -23 4 C-19.53058454 4.45822468 -16.32604951 4.89131683 -13 6 C-13 5.34 -13 4.68 -13 4 C-14.65 3.67 -16.3 3.34 -18 3 C-18 2.34 -18 1.68 -18 1 C-16.86820313 1.01160156 -15.73640625 1.02320313 -14.5703125 1.03515625 C-13.08854331 1.04453454 -11.60677235 1.0536347 -10.125 1.0625 C-9.37863281 1.07087891 -8.63226563 1.07925781 -7.86328125 1.08789062 C-3.80154422 1.20688084 -3.80154422 1.20688084 0 0 Z M-17 6 C-17 6.66 -17 7.32 -17 8 C-16.01 7.67 -15.02 7.34 -14 7 C-14.99 6.67 -15.98 6.34 -17 6 Z M-9 13 C-9 13.66 -9 14.32 -9 15 C-7.68 14.34 -6.36 13.68 -5 13 C-6.32 13 -7.64 13 -9 13 Z M-18 14 C-19.35618499 15.12534105 -19.35618499 15.12534105 -19.0625 18.0625 C-19.041875 19.031875 -19.02125 20.00125 -19 21 C-18.01 21 -17.02 21 -16 21 C-16.33 18.69 -16.66 16.38 -17 14 C-17.33 14 -17.66 14 -18 14 Z M-12 17 C-11 19 -11 19 -11 19 Z M-28 19 C-27 21 -27 21 -27 21 Z M-7 20 C-7 21.98 -7 23.96 -7 26 C-3.27385847 24.88145414 -3.27385847 24.88145414 -1 22 C-2.32 22 -3.64 22 -5 22 C-5 21.34 -5 20.68 -5 20 C-5.66 20 -6.32 20 -7 20 Z M-24 23 C-24 23.99 -24 24.98 -24 26 C-23.34 26 -22.68 26 -22 26 C-22 25.01 -22 24.02 -22 23 C-22.66 23 -23.32 23 -24 23 Z M-17 25 C-17 25.99 -17 26.98 -17 28 C-15.35 28 -13.7 28 -12 28 C-14.26324284 25.92140082 -14.26324284 25.92140082 -17 25 Z " fill="#D2E6DD" transform="translate(90,55)"/>
<path d="M0 0 C-3.38317487 0.97591583 -5.5657338 0.85856655 -9 0 C-9 0.99 -9 1.98 -9 3 C-8.34 3.33 -7.68 3.66 -7 4 C-7.66 4.33 -8.32 4.66 -9 5 C-10.13350534 7.01669827 -10.13350534 7.01669827 -11 9 C-12.53445094 5.93109813 -11.54984289 3.29905734 -11 0 C-12.65 0.33 -14.3 0.66 -16 1 C-15.84402344 1.71027344 -15.68804687 2.42054687 -15.52734375 3.15234375 C-15.23537109 4.53099609 -15.23537109 4.53099609 -14.9375 5.9375 C-14.64166016 7.31228516 -14.64166016 7.31228516 -14.33984375 8.71484375 C-14.22769531 9.46894531 -14.11554687 10.22304688 -14 11 C-14.33 11.33 -14.66 11.66 -15 12 C-14.484375 12.7425 -13.96875 13.485 -13.4375 14.25 C-12 17 -12 17 -12.3125 19.3125 C-12.539375 19.869375 -12.76625 20.42625 -13 21 C-12.01 21 -11.02 21 -10 21 C-10 22.32 -10 23.64 -10 25 C-11.63631892 26.04892238 -13.30485863 27.04906703 -15 28 C-15.33 28.99 -15.66 29.98 -16 31 C-16.66 31 -17.32 31 -18 31 C-18.67321284 28.75194998 -19.33834123 26.50147776 -20 24.25 C-20.37125 22.99703125 -20.7425 21.7440625 -21.125 20.453125 C-22 17 -22 17 -22 13 C-22.61875 12.855625 -23.2375 12.71125 -23.875 12.5625 C-26 12 -26 12 -28 11 C-27.67 10.01 -27.34 9.02 -27 8 C-25.02 8 -23.04 8 -21 8 C-20.67 6.68 -20.34 5.36 -20 4 C-22.97065509 4.34227572 -22.97065509 4.34227572 -26 5 C-26.33 5.66 -26.66 6.32 -27 7 C-27 5.35 -27 3.7 -27 2 C-26.67 2.66 -26.34 3.32 -26 4 C-25.67 2.68 -25.34 1.36 -25 0 C-27.31 0.66 -29.62 1.32 -32 2 C-31.76917234 7.18598742 -31.76917234 7.18598742 -28.6875 11.125 C-27.3571875 12.053125 -27.3571875 12.053125 -26 13 C-22 17.43243243 -22 17.43243243 -22 21 C-22.66 21 -23.32 21 -24 21 C-23.67 21.99 -23.34 22.98 -23 24 C-23.99 23.67 -24.98 23.34 -26 23 C-31.37532725 22.85150512 -31.37532725 22.85150512 -36.75195312 22.83398438 C-38.98050892 22.76997886 -40.8627339 22.64129112 -43 22 C-45.5695782 19.07012655 -47 17.37913899 -47 13.4375 C-44.18194725 6.56849643 -38.25725652 2.60210019 -32 -1 C-21.92051642 -5.08918551 -9.92165709 -3.76261488 0 0 Z M-24 -1 C-23.01 -0.67 -22.02 -0.34 -21 0 C-20.67 0.66 -20.34 1.32 -20 2 C-18.35 1.34 -16.7 0.68 -15 0 C-15 -0.33 -15 -0.66 -15 -1 C-17.97 -1 -20.94 -1 -24 -1 Z M-36 3 C-36 3.66 -36 4.32 -36 5 C-35.01 5 -34.02 5 -33 5 C-33 4.34 -33 3.68 -33 3 C-33.99 3 -34.98 3 -36 3 Z M-41 7 C-41 7.66 -41 8.32 -41 9 C-41.66 9 -42.32 9 -43 9 C-43 9.66 -43 10.32 -43 11 C-42.01 10.67 -41.02 10.34 -40 10 C-39.67 9.01 -39.34 8.02 -39 7 C-39.66 7 -40.32 7 -41 7 Z M-22 10 C-21.67 10.99 -21.34 11.98 -21 13 C-20.34 12.67 -19.68 12.34 -19 12 C-19 11.34 -19 10.68 -19 10 C-19.99 10 -20.98 10 -22 10 Z M-37 13 C-37 13.99 -37 14.98 -37 16 C-36.34 16 -35.68 16 -35 16 C-35.33 15.01 -35.66 14.02 -36 13 C-36.33 13 -36.66 13 -37 13 Z M-20 17 C-19.67 18.65 -19.34 20.3 -19 22 C-18.01 21.34 -17.02 20.68 -16 20 C-17.32 19.01 -18.64 18.02 -20 17 Z M-17 25 C-16 27 -16 27 -16 27 Z " fill="#E4F4E7" transform="translate(74,23)"/>
<path d="M0 0 C1.65 0.66 3.3 1.32 5 2 C5 2.66 5 3.32 5 4 C7.475 4.495 7.475 4.495 10 5 C10 6.98 10 8.96 10 11 C11.32 11 12.64 11 14 11 C14.33 13.31 14.66 15.62 15 18 C16.65 18 18.3 18 20 18 C20 21.66666667 20 25.33333333 20 29 C19.505 27.02 19.505 27.02 19 25 C14.58477891 26.26974972 14.58477891 26.26974972 11 29 C8.8359375 29.1953125 8.8359375 29.1953125 6.375 29.125 C5.55773437 29.10695313 4.74046875 29.08890625 3.8984375 29.0703125 C3.27195312 29.04710938 2.64546875 29.02390625 2 29 C2.33 27.35 2.66 25.7 3 24 C1.35 24 -0.3 24 -2 24 C-1.896875 24.9075 -1.79375 25.815 -1.6875 26.75 C-2 30 -2 30 -4.25 32.125 C-5.61125 33.053125 -5.61125 33.053125 -7 34 C-8.35147138 35.31494512 -9.69112542 36.64264858 -11 38 C-11 36.68 -11 35.36 -11 34 C-10.01 33.505 -10.01 33.505 -9 33 C-8.34786708 30.97536745 -8.34786708 30.97536745 -8 29 C-9.32 29.33 -10.64 29.66 -12 30 C-11.98839844 30.90363281 -11.97679687 31.80726562 -11.96484375 32.73828125 C-11.95130859 34.50751953 -11.95130859 34.50751953 -11.9375 36.3125 C-11.92589844 37.48425781 -11.91429687 38.65601563 -11.90234375 39.86328125 C-12 43 -12 43 -13 46 C-13.66 46 -14.32 46 -15 46 C-15.05397335 43.5622037 -15.09365616 41.12560315 -15.125 38.6875 C-15.14175781 37.99720703 -15.15851562 37.30691406 -15.17578125 36.59570312 C-15.21217794 32.82864604 -15.14378864 31.21568296 -13 28 C-12.34 28 -11.68 28 -11 28 C-10.67 27.01 -10.34 26.02 -10 25 C-6.535 24.505 -6.535 24.505 -3 24 C-3 23.34 -3 22.68 -3 22 C-0.69 22 1.62 22 4 22 C4.33 23.32 4.66 24.64 5 26 C5 24.35 5 22.7 5 21 C7.97 20.67 10.94 20.34 14 20 C14 18.35 14 16.7 14 15 C10.90918353 15.67614594 10.90918353 15.67614594 9.76171875 17.984375 C7.14776535 20.97506227 4.6822498 20.8239725 0.8125 21.25 C-0.45980469 21.39953125 -1.73210937 21.5490625 -3.04296875 21.703125 C-4.01878906 21.80109375 -4.99460937 21.8990625 -6 22 C-5.67 19.36 -5.34 16.72 -5 14 C-5.66 14 -6.32 14 -7 14 C-7 11.36 -7 8.72 -7 6 C-6.34 7.32 -5.68 8.64 -5 10 C-4.71125 9.360625 -4.4225 8.72125 -4.125 8.0625 C-3 6 -3 6 -1 5 C-0.34444881 2.47266765 -0.34444881 2.47266765 0 0 Z M-1 10 C-1.33 11.32 -1.66 12.64 -2 14 C2.48133574 14.72256829 2.48133574 14.72256829 7 15 C6.67 16.32 6.34 17.64 6 19 C7.32 17.68 8.64 16.36 10 15 C8.21437323 12.87137606 8.21437323 12.87137606 6 12.5 C4 12 4 12 2 10 C1.01 10 0.02 10 -1 10 Z M12 21 C12.33 21.99 12.66 22.98 13 24 C13.99 23.67 14.98 23.34 16 23 C15.34 23 14.68 23 14 23 C14 22.34 14 21.68 14 21 C13.34 21 12.68 21 12 21 Z M-14 34 C-14 36.64 -14 39.28 -14 42 C-13.67 42 -13.34 42 -13 42 C-13 39.36 -13 36.72 -13 34 C-13.33 34 -13.66 34 -14 34 Z " fill="#E0EEE0" transform="translate(72,26)"/>
<path d="M0 0 C10.14476 0.64411175 18.53990758 3.93574922 26 11 C34.29854523 20.48405169 37.80775876 31.0580743 37.37890625 43.60546875 C36.37686013 52.58256236 33.00103249 60.14283699 26 66 C19.38372425 70.20062112 13.66446224 70.77741037 6 69.5 C5.34 69.335 4.68 69.17 4 69 C4 68.67 4 68.34 4 68 C5.45019531 68.01353516 5.45019531 68.01353516 6.9296875 68.02734375 C16.07423721 67.81910153 22.23507255 66.76492745 29 60 C32.50956152 55.73973013 33.56063457 51.38222655 34 46 C33.34 46.66 32.68 47.32 32 48 C31.99742188 46.82824219 31.99484375 45.65648437 31.9921875 44.44921875 C31.77612337 32.51866562 30.00513528 24.13941157 21.625 15.125 C18.10238557 11.85456379 14.17672249 9.35415268 10 7 C10.66 6.34 11.32 5.68 12 5 C7.9811485 3.18757677 4.38889325 1.66498383 0 1 C0 0.67 0 0.34 0 0 Z " fill="#E3F6E5" transform="translate(64,18)"/>
<path d="M0 0 C1.65 0 3.3 0 5 0 C5 1.32 5 2.64 5 4 C10.26335555 4.60057507 10.26335555 4.60057507 14.6875 2.5 C15.3371875 1.7575 15.3371875 1.7575 16 1 C18.6875 0.8125 18.6875 0.8125 21 1 C20.67 2.65 20.34 4.3 20 6 C13.96496237 7.50875941 8.10261631 6.64186094 2 6 C2 6.66 2 7.32 2 8 C3.65 8.33 5.3 8.66 7 9 C7 9.66 7 10.32 7 11 C3.7 10.34 0.4 9.68 -3 9 C-3.66 10.32 -4.32 11.64 -5 13 C-4.09507813 13.05607422 -4.09507813 13.05607422 -3.171875 13.11328125 C4.76625659 13.76625659 4.76625659 13.76625659 8 17 C7.67 17.66 7.34 18.32 7 19 C6.34 18.67 5.68 18.34 5 18 C1.06490757 16.68830252 -1.85518004 16.72820853 -6 17 C-8.24324836 18.81193006 -8.24324836 18.81193006 -8.1953125 21.3828125 C-8.17210937 22.28773437 -8.14890625 23.19265625 -8.125 24.125 C-8.10695312 25.03507812 -8.08890625 25.94515625 -8.0703125 26.8828125 C-8.04710937 27.58148438 -8.02390625 28.28015625 -8 29 C-7.34 29.33 -6.68 29.66 -6 30 C-6 30.66 -6 31.32 -6 32 C2.86648147 34.00417755 11.19972559 33.93894351 19.0625 29.125 C25.12571444 23.68406283 27.14741453 15.05551698 27.8125 7.25 C27.89547245 5.50085111 27.96585353 3.75078276 28 2 C28.33 2 28.66 2 29 2 C29.55700326 18.02931596 29.55700326 18.02931596 26 24 C25.46375 25.010625 24.9275 26.02125 24.375 27.0625 C20.12842601 32.31484151 16.18107622 35.51874276 9.359375 36.55078125 C1.65839917 36.81924156 -4.17513717 36.29532985 -10 31 C-10.66 30.34 -11.32 29.68 -12 29 C-11.73422775 26.98990641 -11.38324105 24.99103928 -11 23 C-10.73867782 20.04574234 -10.59060124 17.08663057 -10.4375 14.125 C-10.39431641 13.34125 -10.35113281 12.5575 -10.30664062 11.75 C-10.20146649 9.83349351 -10.10032075 7.91676667 -10 6 C-8.68 5.67 -7.36 5.34 -6 5 C-6.33 6.65 -6.66 8.3 -7 10 C-7.66 10 -8.32 10 -9 10 C-8.67 10.99 -8.34 11.98 -8 13 C-7.59007812 12.4946875 -7.18015625 11.989375 -6.7578125 11.46875 C-6.21898437 10.8190625 -5.68015625 10.169375 -5.125 9.5 C-4.59132813 8.8503125 -4.05765625 8.200625 -3.5078125 7.53125 C-3.01023437 7.0259375 -2.51265625 6.520625 -2 6 C-1.34 6 -0.68 6 0 6 C0 4.02 0 2.04 0 0 Z " fill="#7CAB9E" transform="translate(70,50)"/>
<path d="M0 0 C4.12370968 1.34651745 4.87435522 3.3295636 7.0625 7 C8.68996694 8.70496537 10.35141311 10.37897032 12.0625 12 C14.0625 14 14.0625 14 14.0625 17 C13.4025 17 12.7425 17 12.0625 17 C12.3925 17.99 12.7225 18.98 13.0625 20 C12.0725 19.67 11.0825 19.34 10.0625 19 C4.68717275 18.85150512 4.68717275 18.85150512 -0.68945312 18.83398438 C-2.91800892 18.76997886 -4.8002339 18.64129112 -6.9375 18 C-9.5070782 15.07012655 -10.9375 13.37913899 -10.9375 9.4375 C-8.90738858 4.4891034 -5.68874539 0 0 0 Z M-4.9375 3 C-4.9375 3.66 -4.9375 4.32 -4.9375 5 C-5.5975 5 -6.2575 5 -6.9375 5 C-6.9375 5.66 -6.9375 6.32 -6.9375 7 C-5.9475 6.67 -4.9575 6.34 -3.9375 6 C-3.6075 5.01 -3.2775 4.02 -2.9375 3 C-3.5975 3 -4.2575 3 -4.9375 3 Z M-0.9375 9 C-0.9375 9.99 -0.9375 10.98 -0.9375 12 C-0.2775 12 0.3825 12 1.0625 12 C0.7325 11.01 0.4025 10.02 0.0625 9 C-0.2675 9 -0.5975 9 -0.9375 9 Z " fill="#EEF8F2" transform="translate(37.9375,27)"/>
<path d="M0 0 C0.74507812 0.00451172 1.49015625 0.00902344 2.2578125 0.01367188 C4.0885764 0.02540754 5.91929873 0.0433415 7.75 0.0625 C7.75 0.7225 7.75 1.3825 7.75 2.0625 C8.966875 2.165625 10.18375 2.26875 11.4375 2.375 C15.16069448 2.82469312 17.66662995 3.84632778 20.75 6.0625 C17.27232579 7.22172474 16.67965957 6.86013024 13.375 5.625 C3.69009219 2.56586609 -6.87083781 3.12632701 -16.25 7.0625 C-18.49430065 8.57672694 -20.27612923 10.18985338 -22.25 12.0625 C-22.91 12.0625 -23.57 12.0625 -24.25 12.0625 C-24.58 13.0525 -24.91 14.0425 -25.25 15.0625 C-25.91 15.0625 -26.57 15.0625 -27.25 15.0625 C-27.683125 16.7021875 -27.683125 16.7021875 -28.125 18.375 C-29.25 22.0625 -29.25 22.0625 -31.25 25.0625 C-32.30078135 29.80841311 -32.54556007 34.59757271 -32.8125 39.4375 C-32.85568359 40.17355469 -32.89886719 40.90960938 -32.94335938 41.66796875 C-33.04843799 43.46598068 -33.14962093 45.26421958 -33.25 47.0625 C-33.58 47.0625 -33.91 47.0625 -34.25 47.0625 C-36.02684451 35.06879959 -36.06409623 23.51063544 -29.84765625 12.6015625 C-22.54986721 3.2875139 -11.3432169 -0.13026663 0 0 Z " fill="#D1E8D8" transform="translate(56.25,16.9375)"/>
<path d="M0 0 C0.33 0.66 0.66 1.32 1 2 C3.02463255 2.65213292 3.02463255 2.65213292 5 3 C4.6875 4.9375 4.6875 4.9375 4 7 C3.01 7.33 2.02 7.66 1 8 C0.67 8.66 0.34 9.32 0 10 C0.99 10.33 1.98 10.66 3 11 C2.01 13.64 1.02 16.28 0 19 C-1.98 19 -3.96 19 -6 19 C-5.67 17.02 -5.34 15.04 -5 13 C-6.11375 12.8453125 -6.11375 12.8453125 -7.25 12.6875 C-10.1973519 11.95066203 -11.78383074 11.05200858 -14 9 C-14 8.34 -14 7.68 -14 7 C-14.66 6.67 -15.32 6.34 -16 6 C-15.01 6 -14.02 6 -13 6 C-13 5.34 -13 4.68 -13 4 C-14.65 3.67 -16.3 3.34 -18 3 C-18 2.34 -18 1.68 -18 1 C-16.86820312 1.01160156 -15.73640625 1.02320313 -14.5703125 1.03515625 C-13.08854331 1.04453454 -11.60677235 1.0536347 -10.125 1.0625 C-9.37863281 1.07087891 -8.63226563 1.07925781 -7.86328125 1.08789062 C-3.80154422 1.20688084 -3.80154422 1.20688084 0 0 Z " fill="#E8F4EA" transform="translate(90,55)"/>
<path d="M0 0 C1 3 1 3 0.21484375 4.8671875 C-2.97223772 9.87685073 -6.27885673 15.02009894 -12.34375 16.6171875 C-15.0930626 17.01341196 -17.72268605 17.16799639 -20.5 17.1875 C-21.87671875 17.20876953 -21.87671875 17.20876953 -23.28125 17.23046875 C-26.19552633 16.98342521 -28.35358797 16.21293885 -31 15 C-31 14.34 -31 13.68 -31 13 C-31.99 12.67 -32.98 12.34 -34 12 C-34 8.7 -34 5.4 -34 2 C-33.67 2.66 -33.34 3.32 -33 4 C-30.47266765 4.65555119 -30.47266765 4.65555119 -28 5 C-28.33 7.97 -28.66 10.94 -29 14 C-26.03 14.495 -26.03 14.495 -23 15 C-23.33 13.02 -23.66 11.04 -24 9 C-19.71 9 -15.42 9 -11 9 C-10.67 10.32 -10.34 11.64 -10 13 C-4.89442527 9.28685474 -2.44573251 5.79782471 0 0 Z M-33 7 C-32 9 -32 9 -32 9 Z M-22 13 C-22 13.99 -22 14.98 -22 16 C-20.35 16 -18.7 16 -17 16 C-19.26324284 13.92140082 -19.26324284 13.92140082 -22 13 Z " fill="#DEEFE8" transform="translate(95,67)"/>
<path d="M0 0 C1.14356733 3.43070199 0.86443186 3.87421354 -0.4375 7.0625 C-2.26382436 12.10979642 -2.29944738 16.68758171 -2 22 C-1.89042969 21.02417969 -1.78085937 20.04835938 -1.66796875 19.04296875 C-1.50941406 17.77066406 -1.35085937 16.49835937 -1.1875 15.1875 C-1.03667969 13.92292969 -0.88585937 12.65835938 -0.73046875 11.35546875 C-0.01844789 8.08474189 0.36608673 6.941158 3 5 C2.7834375 5.82177734 2.7834375 5.82177734 2.5625 6.66015625 C0.99155962 13.36938077 0.92786234 19.61064391 1.22265625 26.484375 C0.97656091 30.37009084 -0.12233616 32.63400419 -2 36 C-1.97733657 38.01224124 -1.97733657 38.01224124 -1 40 C-0.75378906 40.59425781 -0.50757813 41.18851563 -0.25390625 41.80078125 C0.47582088 43.54304841 1.23592288 45.27252129 2 47 C1.01 46.67 0.02 46.34 -1 46 C-1.6875 43.9375 -1.6875 43.9375 -2 42 C-2.495 44.475 -2.495 44.475 -3 47 C-3.12375 46.071875 -3.12375 46.071875 -3.25 45.125 C-3.81258459 42.81562433 -3.81258459 42.81562433 -6.0625 41.75 C-6.701875 41.5025 -7.34125 41.255 -8 41 C-7.24485618 35.46227864 -7.24485618 35.46227864 -5.97802734 33.07055664 C-4.87822752 30.7421986 -4.74700712 29.18247257 -4.7265625 26.62109375 C-4.70843506 25.78674805 -4.69030762 24.95240234 -4.67163086 24.09277344 C-4.64854858 22.77841309 -4.64854858 22.77841309 -4.625 21.4375 C-4.38450577 13.66596035 -3.48791655 7.07317031 0 0 Z " fill="#D0E3E2" transform="translate(24,34)"/>
<path d="M0 0 C2.31 0 4.62 0 7 0 C7.33 1.98 7.66 3.96 8 6 C7.01 6 6.02 6 5 6 C5.33 4.68 5.66 3.36 6 2 C4.35 2 2.7 2 1 2 C1.103125 2.9075 1.20625 3.815 1.3125 4.75 C1 8 1 8 -1.25 10.125 C-2.61125 11.053125 -2.61125 11.053125 -4 12 C-5.35147138 13.31494512 -6.69112542 14.64264858 -8 16 C-8 14.68 -8 13.36 -8 12 C-7.34 11.67 -6.68 11.34 -6 11 C-5.34786708 8.97536745 -5.34786708 8.97536745 -5 7 C-6.32 7.33 -7.64 7.66 -9 8 C-8.98839844 8.90363281 -8.97679687 9.80726562 -8.96484375 10.73828125 C-8.95130859 12.50751953 -8.95130859 12.50751953 -8.9375 14.3125 C-8.92589844 15.48425781 -8.91429687 16.65601563 -8.90234375 17.86328125 C-9 21 -9 21 -10 24 C-10.66 24 -11.32 24 -12 24 C-12.05397335 21.5622037 -12.09365616 19.12560315 -12.125 16.6875 C-12.14175781 15.99720703 -12.15851562 15.30691406 -12.17578125 14.59570312 C-12.21217794 10.82864604 -12.14378864 9.21568296 -10 6 C-9.34 6 -8.68 6 -8 6 C-7.67 5.01 -7.34 4.02 -7 3 C-3.535 2.505 -3.535 2.505 0 2 C0 1.34 0 0.68 0 0 Z M-11 12 C-11 14.64 -11 17.28 -11 20 C-10.67 20 -10.34 20 -10 20 C-10 17.36 -10 14.72 -10 12 C-10.33 12 -10.66 12 -11 12 Z " fill="#E3F3E9" transform="translate(69,48)"/>
<path d="M0 0 C0 2.97 0 5.94 0 9 C0.2475 8.21625 0.495 7.4325 0.75 6.625 C2 4 2 4 3.9375 2.6875 C6 2 6 2 9 2 C9 3.98 9 5.96 9 8 C8.01 8.495 8.01 8.495 7 9 C7 8.34 7 7.68 7 7 C6.34 7 5.68 7 5 7 C5 7.66 5 8.32 5 9 C4.01 9 3.02 9 2 9 C2 13.29 2 17.58 2 22 C0.68 21.67 -0.64 21.34 -2 21 C-1.62875 19.7625 -1.62875 19.7625 -1.25 18.5 C-0.94829134 14.27607877 -2.06704009 12.55546101 -4.07421875 8.96875 C-5.3469423 6.26219864 -5.29384369 3.93843689 -5 1 C-2 0 -2 0 0 0 Z " fill="#CADBCE" transform="translate(63,23)"/>
<path d="M0 0 C4.43638313 3.08617957 5.97601578 6.41572172 6.9296875 11.57421875 C7.04980116 15.71814013 5.64890974 19.25006011 4 23 C3.01 23 2.02 23 1 23 C1.11859375 22.28714844 1.2371875 21.57429688 1.359375 20.83984375 C2.2991783 14.19322943 2.2991783 14.19322943 0.5 7.875 C-1.80670305 4.66786412 -1.80670305 4.66786412 -5.75 4.0625 C-6.8225 4.041875 -7.895 4.02125 -9 4 C-8.34 3.34 -7.68 2.68 -7 2 C-9.31 2 -11.62 2 -14 2 C-9.25387727 -1.16408182 -5.45008733 -1.51154766 0 0 Z " fill="#D1E3E4" transform="translate(49,91)"/>
<path d="M0 0 C6.38342541 0.60220994 6.38342541 0.60220994 8.9375 2.25 C10.35440053 4.58371852 10.21718696 6.32136078 10 9 C6.31245243 8.50168276 4.39509338 7.89932357 2 5 C2 7.31 2 9.62 2 12 C2.495 11.835 2.99 11.67 3.5 11.5 C7.03444089 10.79311182 10.39690701 10.93994845 14 11 C14.33 11.66 14.66 12.32 15 13 C12.20807795 13.05380578 9.4171859 13.09357669 6.625 13.125 C5.8309375 13.14175781 5.036875 13.15851562 4.21875 13.17578125 C2.14507985 13.19335473 0.07116759 13.10335168 -2 13 C-4 11 -4 11 -4.125 7.875 C-4.08375 6.92625 -4.0425 5.9775 -4 5 C-2.68 4.67 -1.36 4.34 0 4 C0 2.68 0 1.36 0 0 Z " fill="#CFDDD3" transform="translate(34,31)"/>
<path d="M0 0 C1.65 0 3.3 0 5 0 C5 1.32 5 2.64 5 4 C10.26335555 4.60057507 10.26335555 4.60057507 14.6875 2.5 C15.3371875 1.7575 15.3371875 1.7575 16 1 C18.6875 0.8125 18.6875 0.8125 21 1 C20.67 2.65 20.34 4.3 20 6 C13.96496237 7.50875941 8.10261631 6.64186094 2 6 C2 6.66 2 7.32 2 8 C3.65 8.33 5.3 8.66 7 9 C7 9.66 7 10.32 7 11 C3.7 10.34 0.4 9.68 -3 9 C-3.66 10.32 -4.32 11.64 -5 13 C-5.66 12.67 -6.32 12.34 -7 12 C-5.38405168 9.95880212 -3.7143618 7.95927063 -2 6 C-1.34 6 -0.68 6 0 6 C0 4.02 0 2.04 0 0 Z " fill="#BBD1C3" transform="translate(70,50)"/>
<path d="M0 0 C2.31 0.33 4.62 0.66 7 1 C6.67 1.99 6.34 2.98 6 4 C6.5775 4.0825 7.155 4.165 7.75 4.25 C10.6539336 5.21797787 12.03740604 6.68694284 14 9 C14 9.66 14 10.32 14 11 C15.32 10.67 16.64 10.34 18 10 C17.67 11.65 17.34 13.3 17 15 C18.65 15 20.3 15 22 15 C22 15.99 22 16.98 22 18 C20.68 18 19.36 18 18 18 C18 17.34 18 16.68 18 16 C17.34 16.33 16.68 16.66 16 17 C13.6670134 17.04022391 11.33293334 17.04320247 9 17 C9.33 14.03 9.66 11.06 10 8 C6.83759418 5.89172945 5.49342531 5.66182535 1.8125 5.375 C0.91144531 5.30023438 0.01039062 5.22546875 -0.91796875 5.1484375 C-1.60503906 5.09945312 -2.29210937 5.05046875 -3 5 C-2.01 3.35 -1.02 1.7 0 0 Z M11 13 C12 15 12 15 12 15 Z " fill="#E3F0E5" transform="translate(67,59)"/>
<path d="M0 0 C0.33 0 0.66 0 1 0 C1.5864337 11.15853004 0.94224607 20.43412299 -6.1875 29.4375 C-10.89968533 34.340992 -16.39283498 37.1704495 -23.25 37.3125 C-26.26179482 37.0615171 -29.07259068 36.73185233 -32 36 C-32 35.67 -32 35.34 -32 35 C-31.03320312 35.00902344 -30.06640625 35.01804688 -29.0703125 35.02734375 C-19.93139456 34.81922978 -13.75627126 33.76975683 -7 27 C-0.76033301 19.23887996 -0.54357193 9.5125087 0 0 Z " fill="#E6F6EC" transform="translate(100,51)"/>
<path d="M0 0 C5.57138608 0.63672984 8.57711153 3.37528338 12.203125 7.515625 C16.37816744 13.09297177 19 16.94493047 19 24 C18.01 23.67 17.02 23.34 16 23 C14.90234375 20.63671875 14.90234375 20.63671875 13.9375 17.6875 C12.31644622 11.48781273 12.31644622 11.48781273 8.25 7.0625 C7.5075 6.711875 6.765 6.36125 6 6 C3.89816619 4.42362464 1.9702102 2.74632268 0 1 C0 0.67 0 0.34 0 0 Z " fill="#A0C1A4" transform="translate(78,24)"/>
<path d="M0 0 C0.33 0.66 0.66 1.32 1 2 C0.01 3.485 0.01 3.485 -1 5 C-1.66 5 -2.32 5 -3 5 C-3.28875 6.093125 -3.5775 7.18625 -3.875 8.3125 C-5 12 -5 12 -7 15 C-8.05078135 19.74591311 -8.29556007 24.53507271 -8.5625 29.375 C-8.60568359 30.11105469 -8.64886719 30.84710938 -8.69335938 31.60546875 C-8.79843799 33.40348068 -8.89962093 35.20171958 -9 37 C-9.33 37 -9.66 37 -10 37 C-11.58353836 26.31111609 -11.85929881 16.98466873 -7 7 C-4.90004451 4.33346123 -2.65040003 2.11436407 0 0 Z " fill="#90B1AC" transform="translate(32,27)"/>
<path d="M0 0 C2 3 2 3 1.625 5.1875 C1.41875 5.785625 1.2125 6.38375 1 7 C1.99 7 2.98 7 4 7 C4 8.32 4 9.64 4 11 C2.36368108 12.04892238 0.69514137 13.04906703 -1 14 C-1.33 14.99 -1.66 15.98 -2 17 C-2.66 17 -3.32 17 -4 17 C-5.42258812 13.17679443 -6.24042276 10.08718695 -6 6 C-5.01 6 -4.02 6 -3 6 C-2.01 5.67 -1.02 5.34 0 5 C0 3.35 0 1.7 0 0 Z M-3 11 C-2 13 -2 13 -2 13 Z " fill="#EAF5EE" transform="translate(60,37)"/>
<path d="M0 0 C3 2 3 2 4 5 C4.07973476 6.33525717 4.10771338 7.67412083 4.09765625 9.01171875 C4.09443359 9.76904297 4.09121094 10.52636719 4.08789062 11.30664062 C4.07951172 12.09232422 4.07113281 12.87800781 4.0625 13.6875 C4.05798828 14.48478516 4.05347656 15.28207031 4.04882812 16.10351562 C4.0370585 18.06904257 4.01912348 20.03453085 4 22 C3.34 22 2.68 22 2 22 C1.34 22.66 0.68 23.32 0 24 C0 16.08 0 8.16 0 0 Z " fill="#C3DCC8" transform="translate(96,42)"/>
<path d="M0 0 C1.05509766 -0.02449219 2.11019531 -0.04898437 3.19726562 -0.07421875 C10.00898291 -0.09968311 14.35673943 0.81605567 20.1875 4.375 C16.70982579 5.53422474 16.11715957 5.17263024 12.8125 3.9375 C3.00642099 0.82581845 -6.93999312 2.15912671 -16.8125 4.375 C-16.8125 3.715 -16.8125 3.055 -16.8125 2.375 C-11.19886486 -0.17059277 -6.07395989 0.00734013 0 0 Z " fill="#89AD90" transform="translate(56.8125,18.625)"/>
<path d="M0 0 C0.33 0 0.66 0 1 0 C1.55700326 16.02931596 1.55700326 16.02931596 -2 22 C-2.5775 23.03125 -3.155 24.0625 -3.75 25.125 C-6.33709017 28.43072633 -9.15536712 31.20702736 -13 33 C-13.99 32.67 -14.98 32.34 -16 32 C-15.39671875 31.57589844 -14.7934375 31.15179688 -14.171875 30.71484375 C-7.098012 25.52354106 -3.13530165 20.70546059 -1 12 C-0.5539304 8.00588257 -0.24663177 4.01101137 0 0 Z " fill="#8EAE9C" transform="translate(98,52)"/>
<path d="M0 0 C0.33 0 0.66 0 1 0 C1.185625 1.2065625 1.185625 1.2065625 1.375 2.4375 C1.58125 3.283125 1.7875 4.12875 2 5 C2.66 5.33 3.32 5.66 4 6 C4 6.66 4 7.32 4 8 C8.15626368 9.00926479 12.04365094 9.10239579 16.3125 9.0625 C17.56675781 9.05347656 18.82101563 9.04445313 20.11328125 9.03515625 C21.06589844 9.02355469 22.01851562 9.01195313 23 9 C23 9.99 23 10.98 23 12 C7.56373651 12.90446856 7.56373651 12.90446856 1.41796875 8.38671875 C0 7 0 7 -2 4 C-1.34 4 -0.68 4 0 4 C0 2.68 0 1.36 0 0 Z " fill="#8EB6AC" transform="translate(60,74)"/>
<path d="M0 0 C0.66 0 1.32 0 2 0 C2 0.66 2 1.32 2 2 C2.99 1.67 3.98 1.34 5 1 C5 1.66 5 2.32 5 3 C4.01 3.33 3.02 3.66 2 4 C1.95745644 5.99954746 1.95919217 8.00041636 2 10 C4.02692129 12.02692129 8.03748608 11.18507217 10.8125 11.1875 C11.53759766 11.19974609 12.26269531 11.21199219 13.00976562 11.22460938 C16.82993278 11.23509474 19.76435611 11.14860342 23 9 C23 9.99 23 10.98 23 12 C22.34 12 21.68 12 21 12 C21.33 12.99 21.66 13.98 22 15 C21.01 14.67 20.02 14.34 19 14 C13.62467275 13.85150512 13.62467275 13.85150512 8.24804688 13.83398438 C6.01978155 13.7699872 4.13724538 13.64020024 2 13 C-0.546875 10.12109375 -0.546875 10.12109375 -2 7 C-1.80880282 4.19577473 -1.24596631 2.49193262 0 0 Z " fill="#DBEAE5" transform="translate(29,32)"/>
<path d="M0 0 C2.5 2.3125 2.5 2.3125 5 5 C5 5.99 5 6.98 5 8 C5.495 7.835 5.99 7.67 6.5 7.5 C10.03444089 6.79311182 13.39690701 6.93994845 17 7 C17.33 7.66 17.66 8.32 18 9 C15.20807795 9.05380578 12.4171859 9.09357669 9.625 9.125 C8.8309375 9.14175781 8.036875 9.15851562 7.21875 9.17578125 C5.14507985 9.19335473 3.07116759 9.10335168 1 9 C-1 7 -1 7 -1.1875 3.9375 C-1 1 -1 1 0 0 Z " fill="#B6CEC6" transform="translate(31,35)"/>
<path d="M0 0 C0.99 0.495 0.99 0.495 2 1 C2.144375 1.66 2.28875 2.32 2.4375 3 C2.623125 3.66 2.80875 4.32 3 5 C3.99 5.33 4.98 5.66 6 6 C6.03738281 6.98742187 6.07476563 7.97484375 6.11328125 8.9921875 C6.17902344 10.27351563 6.24476562 11.55484375 6.3125 12.875 C6.37050781 14.15117188 6.42851562 15.42734375 6.48828125 16.7421875 C6.65714844 17.81726563 6.82601563 18.89234375 7 20 C7.99 20.66 8.98 21.32 10 22 C8.02 21.67 6.04 21.34 4 21 C3.66179834 19.4176994 3.32964061 17.83410625 3 16.25 C2.814375 15.36828125 2.62875 14.4865625 2.4375 13.578125 C2 11 2 11 2 7 C1.34 7 0.68 7 0 7 C0 4.69 0 2.38 0 0 Z " fill="#99B6BF" transform="translate(21,75)"/>
<path d="M0 0 C0.99 0.33 1.98 0.66 3 1 C1.625 2.5 1.625 2.5 0 4 C-0.66 4 -1.32 4 -2 4 C-2 4.66 -2 5.32 -2 6 C-2.66 6 -3.32 6 -4 6 C-3.98839844 6.90363281 -3.97679687 7.80726562 -3.96484375 8.73828125 C-3.95130859 10.50751953 -3.95130859 10.50751953 -3.9375 12.3125 C-3.92589844 13.48425781 -3.91429687 14.65601562 -3.90234375 15.86328125 C-4 19 -4 19 -5 22 C-5.66 22 -6.32 22 -7 22 C-7.05397335 19.5622037 -7.09365616 17.12560315 -7.125 14.6875 C-7.14175781 13.99720703 -7.15851562 13.30691406 -7.17578125 12.59570312 C-7.21217794 8.82864604 -7.14378864 7.21568296 -5 4 C-4.34 4 -3.68 4 -3 4 C-2.67 3.01 -2.34 2.02 -2 1 C-1.34 0.67 -0.68 0.34 0 0 Z M-6 10 C-6 12.64 -6 15.28 -6 18 C-5.67 18 -5.34 18 -5 18 C-5 15.36 -5 12.72 -5 10 C-5.33 10 -5.66 10 -6 10 Z " fill="#E8FAF7" transform="translate(64,50)"/>
<path d="M0 0 C0.99 0 1.98 0 3 0 C3 0.66 3 1.32 3 2 C3.66 2 4.32 2 5 2 C4.67 3.32 4.34 4.64 4 6 C4 5.01 4 4.02 4 3 C0.60085025 4.13304992 -0.05254451 5.12518475 -2 8 C-4.64 7.67 -7.28 7.34 -10 7 C-9.67 5.35 -9.34 3.7 -9 2 C-6.03 2.495 -6.03 2.495 -3 3 C-3 3.99 -3 4.98 -3 6 C-2.01 4.02 -1.02 2.04 0 0 Z " fill="#DCEBDB" transform="translate(82,38)"/>
<path d="M0 0 C0.66 0 1.32 0 2 0 C3.625 2 3.625 2 5 4 C5.33 2.68 5.66 1.36 6 0 C8.2642463 6.89047614 7.9134648 11.37421716 5 18 C4.01 18 3.02 18 2 18 C2.10699219 17.28714844 2.21398438 16.57429688 2.32421875 15.83984375 C3.11568513 9.51662308 3.11220299 5.60196539 0 0 Z " fill="#D2E4E4" transform="translate(48,96)"/>
<path d="M0 0 C1.65 0 3.3 0 5 0 C5.33 4.62 5.66 9.24 6 14 C5.01 14.495 5.01 14.495 4 15 C3.34 12.03 2.68 9.06 2 6 C0.68 5.67 -0.64 5.34 -2 5 C-1.125 1.125 -1.125 1.125 0 0 Z " fill="#EAF5EF" transform="translate(64,66)"/>
<path d="M0 0 C1.485 0.99 1.485 0.99 3 2 C3.29296875 5.2578125 3.29296875 5.2578125 3.1875 9.125 C3.16042969 10.40632813 3.13335937 11.68765625 3.10546875 13.0078125 C3.07066406 13.99523437 3.03585938 14.98265625 3 16 C3.66 16 4.32 16 5 16 C5.33 15.01 5.66 14.02 6 13 C5.5020163 16.73487777 5.12508244 18.81237635 3 22 C-0.01667085 16.98013301 -0.38714622 13.28676196 -0.1875 7.625 C-0.17396484 6.88894531 -0.16042969 6.15289062 -0.14648438 5.39453125 C-0.11144869 3.59603257 -0.05765288 1.79791578 0 0 Z " fill="#A5CAC1" transform="translate(54,56)"/>
<path d="M0 0 C0.66 0 1.32 0 2 0 C1.49396008 2.16874252 1.00016187 3.99967627 0 6 C-0.99 6 -1.98 6 -3 6 C-2.01 7.485 -2.01 7.485 -1 9 C-1 9.99 -1 10.98 -1 12 C-0.01 12.33 0.98 12.66 2 13 C1.67 13.66 1.34 14.32 1 15 C0.67 14.67 0.34 14.34 0 14 C-0.66 14.66 -1.32 15.32 -2 16 C-2.33 13.69 -2.66 11.38 -3 9 C-3.928125 8.7834375 -3.928125 8.7834375 -4.875 8.5625 C-7 8 -7 8 -9 7 C-8.67 6.01 -8.34 5.02 -8 4 C-6.02 4 -4.04 4 -2 4 C-1.34 2.68 -0.68 1.36 0 0 Z " fill="#F0F7F0" transform="translate(55,27)"/>
<path d="M0 0 C0.99 0 1.98 0 3 0 C3 1.65 3 3.3 3 5 C-2.80766296 6.5056904 -7.9981863 7.21824777 -14 7 C-14 7.66 -14 8.32 -14 9 C-15.32 8.67 -16.64 8.34 -18 8 C-17.34 8 -16.68 8 -16 8 C-16 7.34 -16 6.68 -16 6 C-15.09636719 5.90203125 -14.19273438 5.8040625 -13.26171875 5.703125 C-12.08222656 5.55359375 -10.90273437 5.4040625 -9.6875 5.25 C-8.51574219 5.11078125 -7.34398438 4.9715625 -6.13671875 4.828125 C-2.53638954 3.87760222 -1.97966413 2.99690692 0 0 Z " fill="#ABC9B3" transform="translate(83,41)"/>
<path d="M0 0 C1.1446875 0.0928125 1.1446875 0.0928125 2.3125 0.1875 C1.9825 1.8375 1.6525 3.4875 1.3125 5.1875 C-3.91495859 6.3938366 -8.45278314 5.94362577 -13.6875 5.1875 C-13.6875 4.8575 -13.6875 4.5275 -13.6875 4.1875 C-12.429375 4.084375 -11.17125 3.98125 -9.875 3.875 C-5.57001597 3.36142296 -3.97726366 0.27748351 0 0 Z " fill="#89B694" transform="translate(88.6875,50.8125)"/>
<path d="M0 0 C1.32 0 2.64 0 4 0 C6.7719047 8.69156559 7.2089048 15.96962677 6 25 C5.67 25 5.34 25 5 25 C4.95512451 24.44538086 4.91024902 23.89076172 4.86401367 23.31933594 C4.65205815 20.79487446 4.41999381 18.27264941 4.1875 15.75 C4.11724609 14.87730469 4.04699219 14.00460938 3.97460938 13.10546875 C3.40077219 7.00250437 3.40077219 7.00250437 0 2 C0 1.34 0 0.68 0 0 Z " fill="#90B3A6" transform="translate(50,44)"/>
<path d="M0 0 C1.32 0.66 2.64 1.32 4 2 C4 2.66 4 3.32 4 4 C5.66012191 5.37396291 5.66012191 5.37396291 7.75 6.75 C11.53428954 9.47415169 13.69832362 11.97206634 16 16 C15.67 16.66 15.34 17.32 15 18 C14.443125 17.33613281 13.88625 16.67226563 13.3125 15.98828125 C8.59245494 10.52674263 4.34269301 6.45965073 -2 3 C-1.34 2.01 -0.68 1.02 0 0 Z " fill="#DAECD9" transform="translate(76,22)"/>
<path d="M0 0 C1 2 1 2 1.375 3.6875 C2.25672147 6.94986944 3.63317506 9.90978708 5 13 C4.01 12.67 3.02 12.34 2 12 C1.3125 9.9375 1.3125 9.9375 1 8 C0.67 9.65 0.34 11.3 0 13 C-0.12375 12.071875 -0.12375 12.071875 -0.25 11.125 C-0.81258459 8.81562433 -0.81258459 8.81562433 -3.0625 7.75 C-3.701875 7.5025 -4.34125 7.255 -5 7 C-4.67 5.68 -4.34 4.36 -4 3 C-4 3.99 -4 4.98 -4 6 C-3.34 6 -2.68 6 -2 6 C-1.855625 5.195625 -1.71125 4.39125 -1.5625 3.5625 C-1 1 -1 1 0 0 Z " fill="#D5E9EB" transform="translate(21,68)"/>
<path d="M0 0 C0.33 0.99 0.66 1.98 1 3 C-7.14772234 7.67492265 -12.67714327 9.33071418 -22 7 C-22 6.67 -22 6.34 -22 6 C-20.99839844 5.98582031 -19.99679688 5.97164063 -18.96484375 5.95703125 C-11.3630121 5.72707751 -5.75673101 5.47591486 0 0 Z " fill="#D9E8E5" transform="translate(90,80)"/>
<path d="M0 0 C3.875 1.875 3.875 1.875 5 3 C5.04080783 4.99958364 5.04254356 7.00045254 5 9 C2 9 2 9 0.25 7.875 C-1 6 -1 6 -0.6875 2.8125 C-0.460625 1.884375 -0.23375 0.95625 0 0 Z " fill="#BED7CB" transform="translate(55,33)"/>
<path d="M0 0 C1.98 0 3.96 0 6 0 C6 2 6 4 6 6 C3.03 5.505 3.03 5.505 0 5 C0 4.34 0 3.68 0 3 C-0.66 2.67 -1.32 2.34 -2 2 C-1.34 2 -0.68 2 0 2 C0 1.34 0 0.68 0 0 Z " fill="#E6F0DC" transform="translate(86,44)"/>
<path d="M0 0 C-0.66 2.31 -1.32 4.62 -2 7 C-2.99 7 -3.98 7 -5 7 C-5 5.68 -5 4.36 -5 3 C-6.65 3.33 -8.3 3.66 -10 4 C-10 3.34 -10 2.68 -10 2 C-6.49223216 0.39644899 -3.85645121 -0.22036864 0 0 Z " fill="#D0DEC7" transform="translate(82,31)"/>
<path d="M0 0 C-1.12073862 0.83905565 -2.24674547 1.67107831 -3.375 2.5 C-4.31472656 3.19609375 -4.31472656 3.19609375 -5.2734375 3.90625 C-7 5 -7 5 -9 5 C-10.56266521 6.099763 -10.56266521 6.099763 -12.125 7.5 C-13.07375 8.325 -14.0225 9.15 -15 10 C-13.33849104 6.07279701 -10.93555094 3.0720882 -8 0 C-4.61494688 -1.20894754 -3.43884549 -1.14628183 0 0 Z " fill="#B7D1C6" transform="translate(40,24)"/>
<path d="M0 0 C3.36938898 1.12312966 4.53174093 2.53174093 7 5 C7.99 5.33 8.98 5.66 10 6 C10.73046875 7.84765625 10.73046875 7.84765625 11.1875 10.0625 C11.34605469 10.79597656 11.50460938 11.52945313 11.66796875 12.28515625 C11.77753906 12.85105469 11.88710938 13.41695312 12 14 C11.34 14 10.68 14 10 14 C8.21694476 11.36107824 7.00940379 9.02821137 6 6 C5.0409375 5.5359375 5.0409375 5.5359375 4.0625 5.0625 C1.54531085 3.7657662 1.03113052 2.5778263 0 0 Z " fill="#C6D4CD" transform="translate(42,30)"/>
<path d="M0 0 C0.33 0 0.66 0 1 0 C1 1.65 1 3.3 1 5 C1.99 5.33 2.98 5.66 4 6 C1.95301586 8.04698414 -2.30411241 7.70045693 -5 8 C-4.67 6.35 -4.34 4.7 -4 3 C-2.68 3 -1.36 3 0 3 C0 2.01 0 1.02 0 0 Z " fill="#EAF6EB" transform="translate(71,40)"/>
<path d="M0 0 C0.66 0.33 1.32 0.66 2 1 C2.6328125 3.28515625 2.6328125 3.28515625 3.125 6.0625 C3.29257812 6.98160156 3.46015625 7.90070312 3.6328125 8.84765625 C3.75398438 9.55792969 3.87515625 10.26820312 4 11 C2.35 10.67 0.7 10.34 -1 10 C-0.34 8.02 0.32 6.04 1 4 C0.34 4 -0.32 4 -1 4 C-1.33 4.99 -1.66 5.98 -2 7 C-2 6.01 -2 5.02 -2 4 C-2.66 3.67 -3.32 3.34 -4 3 C-3.01 3 -2.02 3 -1 3 C-0.67 2.01 -0.34 1.02 0 0 Z " fill="#E2EDDF" transform="translate(56,23)"/>
<path d="M0 0 C0.66 0.33 1.32 0.66 2 1 C1.814375 1.53625 1.62875 2.0725 1.4375 2.625 C0.88477923 5.6254842 1.41772346 8.02391989 2 11 C2 11.66 2 12.32 2 13 C3.98 12.67 5.96 12.34 8 12 C7.67 12.66 7.34 13.32 7 14 C4.69 14 2.38 14 0 14 C-0.19456705 12.04235617 -0.38044247 10.08384679 -0.5625 8.125 C-0.66691406 7.03445312 -0.77132813 5.94390625 -0.87890625 4.8203125 C-1 2 -1 2 0 0 Z " fill="#D3EBF0" transform="translate(27,81)"/>
<path d="M0 0 C0.99 0.33 1.98 0.66 3 1 C3 1.99 3 2.98 3 4 C3.66 3.67 4.32 3.34 5 3 C7.3329866 2.95977609 9.66706666 2.95679753 12 3 C12 3.99 12 4.98 12 6 C10.68 6 9.36 6 8 6 C8 5.34 8 4.68 8 4 C7.01 4.495 7.01 4.495 6 5 C3.6670134 5.04022391 1.33293334 5.04320247 -1 5 C-0.67 3.35 -0.34 1.7 0 0 Z M1 1 C2 3 2 3 2 3 Z " fill="#F0F9F1" transform="translate(77,71)"/>
<path d="M0 0 C0.20086443 3.71599191 0.1519437 4.77208445 -2 8 C-2.99 7.67 -3.98 7.34 -5 7 C-5 5.02 -5 3.04 -5 1 C-2 0 -2 0 0 0 Z " fill="#92BB9F" transform="translate(63,23)"/>
<path d="M0 0 C0.66 0 1.32 0 2 0 C2.33 5.28 2.66 10.56 3 16 C2.01 15.67 1.02 15.34 0 15 C0 10.05 0 5.1 0 0 Z " fill="#D4DDD7" transform="translate(69,66)"/>
<path d="M0 0 C1.58246707 -0.08153933 3.16616273 -0.13943557 4.75 -0.1875 C6.07257813 -0.23970703 6.07257813 -0.23970703 7.421875 -0.29296875 C10.44671583 0.05076316 11.75583602 1.00227459 14 3 C13.67 3.66 13.34 4.32 13 5 C12.34 4.690625 11.68 4.38125 11 4.0625 C7.29523985 2.75039745 3.90736009 2.39735865 0 2 C0 1.34 0 0.68 0 0 Z " fill="#AAC5B6" transform="translate(64,64)"/>
<path d="M0 0 C1.65 0 3.3 0 5 0 C5 1.65 5 3.3 5 5 C3.02 5 1.04 5 -1 5 C-0.67 3.35 -0.34 1.7 0 0 Z " fill="#A7C7B7" transform="translate(85,69)"/>
<path d="M0 0 C2.64 0 5.28 0 8 0 C8 0.99 8 1.98 8 3 C2.25 4.125 2.25 4.125 0 3 C0 2.01 0 1.02 0 0 Z " fill="#8DB79C" transform="translate(80,63)"/>
<path d="M0 0 C0 0.66 0 1.32 0 2 C-1.65 2.33 -3.3 2.66 -5 3 C-5 4.65 -5 6.3 -5 8 C-5.33 6.68 -5.66 5.36 -6 4 C-7.65 4.33 -9.3 4.66 -11 5 C-7.17906575 1.05170128 -5.52310605 -0.1453449 0 0 Z " fill="#D4ECE0" transform="translate(47,22)"/>
<path d="M0 0 C-0.33 1.65 -0.66 3.3 -1 5 C-1.66 5 -2.32 5 -3 5 C-2.34 6.65 -1.68 8.3 -1 10 C-1.99 10.33 -2.98 10.66 -4 11 C-4 7.7 -4 4.4 -4 1 C-2 0 -2 0 0 0 Z " fill="#A6C6BB" transform="translate(64,55)"/>
<path d="M0 0 C2 1.3125 2 1.3125 4 3 C4 3.99 4 4.98 4 6 C3.01 6 2.02 6 1 6 C0.67 6.66 0.34 7.32 0 8 C-1 7 -1 7 -1.125 4 C-1 1 -1 1 0 0 Z " fill="#83B0A3" transform="translate(31,35)"/>
<path d="M0 0 C0.99 0 1.98 0 3 0 C3 0.66 3 1.32 3 2 C3.66 2 4.32 2 5 2 C6.17571451 5.67410785 6.07366746 9.16929183 6 13 C5.67 13 5.34 13 5 13 C2.85714286 5.57142857 2.85714286 5.57142857 2 2 C1.34 2 0.68 2 0 2 C0 1.34 0 0.68 0 0 Z " fill="#95B4B3" transform="translate(48,94)"/>
<path d="M0 0 C2.475 0.495 2.475 0.495 5 1 C5 1.99 5 2.98 5 4 C5.99 4.33 6.98 4.66 8 5 C5.69 5 3.38 5 1 5 C0.67 3.35 0.34 1.7 0 0 Z " fill="#BAD7C7" transform="translate(80,58)"/>
<path d="M0 0 C0.99 0 1.98 0 3 0 C2.67 2.97 2.34 5.94 2 9 C0.68 7.35 -0.64 5.7 -2 4 C-1.34 4 -0.68 4 0 4 C0 2.68 0 1.36 0 0 Z " fill="#D7E5D6" transform="translate(34,31)"/>
<path d="M0 0 C0.66 0 1.32 0 2 0 C2 0.66 2 1.32 2 2 C2.99 1.67 3.98 1.34 5 1 C5 1.66 5 2.32 5 3 C4.01 3.33 3.02 3.66 2 4 C0.78130071 6.50447516 0.78130071 6.50447516 0 9 C-0.66 8.34 -1.32 7.68 -2 7 C-1.6730244 4.38419521 -1.17960932 2.35921863 0 0 Z " fill="#E1F5F1" transform="translate(29,32)"/>
<path d="M0 0 C0 1.98 0 3.96 0 6 C-1.32 6 -2.64 6 -4 6 C-4 4.35 -4 2.7 -4 1 C-2 0 -2 0 0 0 Z " fill="#88B6A0" transform="translate(46,24)"/>
<path d="M0 0 C4.83256305 0.41421969 6.82679218 2.46413986 10 6 C9.34 6.66 8.68 7.32 8 8 C6.66372225 6.85760183 5.33104612 5.71098945 4 4.5625 C3.2575 3.92441406 2.515 3.28632813 1.75 2.62890625 C1.1725 2.09136719 0.595 1.55382812 0 1 C0 0.67 0 0.34 0 0 Z " fill="#99B59A" transform="translate(78,24)"/>
<path d="M0 0 C0.33 0.66 0.66 1.32 1 2 C1.66 2.33 2.32 2.66 3 3 C3 3.99 3 4.98 3 6 C1.35 6 -0.3 6 -2 6 C-2 5.01 -2 4.02 -2 3 C-2.99 2.67 -3.98 2.34 -5 2 C-3.35 1.34 -1.7 0.68 0 0 Z " fill="#D7EACD" transform="translate(90,55)"/>
<path d="M0 0 C0.33 0.66 0.66 1.32 1 2 C3.52733235 2.65555119 3.52733235 2.65555119 6 3 C6 4.65 6 6.3 6 8 C5.01 7.67 4.02 7.34 3 7 C3 5.68 3 4.36 3 3 C2.01 3.33 1.02 3.66 0 4 C0 2.68 0 1.36 0 0 Z " fill="#B0CBC3" transform="translate(61,69)"/>
<path d="M0 0 C-2.90092502 1.93395001 -3.89674737 2.30131941 -7.1875 2.625 C-8.445625 2.74875 -9.70375 2.8725 -11 3 C-11 2.34 -11 1.68 -11 1 C-6.92630576 -1.03684712 -4.41062136 -1.0257259 0 0 Z " fill="#96B9AB" transform="translate(51,20)"/>
<path d="M0 0 C1.98 0 3.96 0 6 0 C6 0.99 6 1.98 6 3 C4.35 3.33 2.7 3.66 1 4 C0.67 2.68 0.34 1.36 0 0 Z " fill="#8BB5A3" transform="translate(76,77)"/>
<path d="M0 0 C0.99 1.32 1.98 2.64 3 4 C-0.12180401 4.96661363 -2.52083795 4.98988909 -5.75 4.5625 C-6.94882813 4.40974609 -6.94882813 4.40974609 -8.171875 4.25390625 C-8.77515625 4.17011719 -9.3784375 4.08632813 -10 4 C-10 3.67 -10 3.34 -10 3 C-8.72125 2.87625 -7.4425 2.7525 -6.125 2.625 C-2.65209064 2.30957601 -2.65209064 2.30957601 0 0 Z " fill="#9DBCA5" transform="translate(85,52)"/>
<path d="M0 0 C1.32 0 2.64 0 4 0 C4 1.32 4 2.64 4 4 C2.35 4 0.7 4 -1 4 C-0.67 2.68 -0.34 1.36 0 0 Z " fill="#B8CDBF" transform="translate(73,40)"/>
<path d="M0 0 C1.8125 0.9375 1.8125 0.9375 2.8125 3.9375 C0.5025 3.6075 -1.8075 3.2775 -4.1875 2.9375 C-4.1875 3.5975 -4.1875 4.2575 -4.1875 4.9375 C-4.8475 4.6075 -5.5075 4.2775 -6.1875 3.9375 C-2.77921598 -0.07940617 -2.77921598 -0.07940617 0 0 Z " fill="#E8F2ED" transform="translate(37.1875,27.0625)"/>
<path d="M0 0 C0.99 0.33 1.98 0.66 3 1 C2.38125 1.2475 1.7625 1.495 1.125 1.75 C-1.35068687 3.20628639 -1.95125002 4.37812506 -3 7 C-3.66 6.67 -4.32 6.34 -5 6 C-3.35 4.02 -1.7 2.04 0 0 Z " fill="#A9BFB3" transform="translate(68,56)"/>
<path d="M0 0 C2 2 2 2 2.125 4.625 C2.08375 5.40875 2.0425 6.1925 2 7 C0.68 6.67 -0.64 6.34 -2 6 C-1.34 4.02 -0.68 2.04 0 0 Z " fill="#DBECDC" transform="translate(63,38)"/>
<path d="M0 0 C2.475 0.99 2.475 0.99 5 2 C4.67 2.99 4.34 3.98 4 5 C2.68 4.67 1.36 4.34 0 4 C0 2.68 0 1.36 0 0 Z " fill="#E6F0E2" transform="translate(72,26)"/>
<path d="M0 0 C0.66 0 1.32 0 2 0 C2 1.98 2 3.96 2 6 C1.01 6.33 0.02 6.66 -1 7 C-1.04254356 5.00045254 -1.04080783 2.99958364 -1 1 C-0.67 0.67 -0.34 0.34 0 0 Z M0 2 C1 4 1 4 1 4 Z " fill="#E5F7F4" transform="translate(62,72)"/>
<path d="M0 0 C0.66 0 1.32 0 2 0 C2 0.66 2 1.32 2 2 C2.99 2.33 3.98 2.66 5 3 C4.67 3.66 4.34 4.32 4 5 C1.03 4.505 1.03 4.505 -2 4 C-1.34 3.67 -0.68 3.34 0 3 C0 2.01 0 1.02 0 0 Z " fill="#E1EDE1" transform="translate(88,63)"/>
</svg>
